<svg width="1043.753" height="612.892" 
viewBox="0 0 1043.753 612.892" xmlns="http://www.w3.org/2000/svg">
<g
 id="svgGroup"
  stroke-linecap="round"
   fill-rule="evenodd"
    font-size="9pt"
     stroke="#f7ce00"
      stroke-width="0.9mm"
       fill="#0c3656"
        style="stroke:#f7ce00;stroke-width:0.9mm;fill:#0c3656">

      
      <path d="M 918.753 94.923 Q 901.956 119.532 881.253 153.907 A 1986.413 1986.413 0 0 0 859.866 190.333 A 2646.539 2646.539 0 0 0 837.113 230.86 A 1354.796 1354.796 0 0 0 807.559 286.707 A 1543.301 1543.301 0 0 0 797.855 306.446 A 3026.574 3026.574 0 0 0 760.941 385.743 A 2831.18 2831.18 0 0 0 744.046 424.22 A 2450.349 2450.349 0 0 0 728.519 461.134 Q 715.762 492.185 705.891 516.89 A 4094.134 4094.134 0 0 0 702.738 524.806 A 4709.786 4709.786 0 0 0 697.562 537.891 Q 690.238 556.495 685.55 568.946 A 3779.231 3779.231 0 0 0 684.085 572.843 Q 679.823 584.202 679.357 585.715 A 1.264 1.264 0 0 0 679.3 585.938 A 17.92 17.92 0 0 1 676.339 590.983 Q 672.804 595.114 666.956 595.63 A 19.535 19.535 0 0 1 665.238 595.704 A 13.469 13.469 0 0 1 656.253 592.384 Q 652.347 589.063 651.175 583.985 Q 651.175 583.595 647.464 567.384 A 20466.071 20466.071 0 0 0 645.45 558.595 Q 642.191 544.386 637.503 524.024 A 14745.558 14745.558 0 0 1 631.698 498.699
 Q 627.75 481.41 623.245 461.524 A 40501.457 40501.457
  0 0 0 610.794 406.739 A 45965.807 45965.807 0 0 0 606.448 387.696 A
   119521.544 119521.544 0 0 1 588.675 309.766 A 11018.526 11018.526 0
    0 1 579.984 271.29 A 9400.279 9400.279 0 0 1 571.878 234.766 Q 546.55
     306.215 521.038 361.75 A 1084.052 1084.052 0 0 1 519.339 365.431 
     A 900.451 900.451 0 0 1 493.475 417.008 Q 479.538 442.606 465.238
      464.259 A 488.799 488.799 0 0 1 437.287 502.606 A 359.175 359.175
       0 0 1 408.011 534.766 A 299.255 299.255 0 0 1 369.102 566.733 
       A 253.284 253.284 0 0 1 346.292 580.665 Q 314.066 598.048 278.714 605.47 A 352.951 352.951 0 0 1 220.974 612.536 A 405.599 405.599 0 0 1 203.909 612.891 A 208.995 208.995 0 0 1 177.795 611.18 A 260.301 260.301 0 0 1 160.55 608.399 A 238.883 238.883 0 0 1 114.847 594.532 Q 92.191 585.157 71.488 571.095 A 175.486 175.486 0 0 1 34.769 537.696 Q 18.753 518.36 9.378 493.946 A 140.375 140.375 0 0 1 1.111 459.463
        A 175.768 175.768 0 0 1 0.003 439.454 A 130.993 130.993 0 0 1 6.855 396.722 A 121.253 121.253 0 0 1 13.284 381.446 Q 26.566 355.079 49.222 336.134 A 166.423 166.423 0 0 1 95.766 308.87 A 190.882 190.882 0 0 1 101.761 306.641 Q 131.644 296.095 164.847 296.095 Q 189.066 296.095 208.402 300.196 Q 227.738 304.298 242.581 310.548 A 161.78 161.78 0 0 1 255.553 316.665 Q 261.943 320.051 267.267 323.728 A 98.013 98.013 0 0 1 267.972 324.22 A 266.404 266.404 0 0 1 275.388 329.621 Q 281.156 333.985 285.55 337.891 Q 292.071 343.688 295.232 347.973 A 29.229 29.229 0 0 1 295.706
         348.634 Q 298.741 352.997 299.197 353.122 A 0.094 0.094 0 0 0 299.222 353.126 Q 301.392 357.104 301.553 360.747 A 13.178 13.178 0 0 1 301.566 361.329 A 14.403 14.403 0 0 1 299.062 369.397 A 19.377 19.377 0 0 1 297.464 371.485 A 13.419 13.419 0 0 1 287.643 376.15 A 18.086 18.086 0 0 1 286.722 376.173 A 14.302 14.302 0 0 1 275.642 371.313 A 18.876 18.876 0 0 1 274.222 369.532 A 6.208 6.208 0 0 1 274.039 369.334 Q 273.235 368.438 269.364 363.929 A 3182.139 3182.139 0 0 1 267.972
          362.306 A 46.029 46.029 0 0 0 263.585 357.9 Q 258.753 353.608 251.33 348.84 A 166.689 166.689 0 0 0 248.831 347.266 A 113.781 113.781 0 0 0 236.783 340.859 Q 230.706 338.051 223.58 335.457 A 228.144 228.144 0 0 0 214.652 332.423 Q 197.529 326.982 174.244 325.999 A 250.69 250.69 0 0 0 163.675 325.782 A 159.17 159.17 0 0 0 116.521 332.68 A 149.983 149.983 0 0 0 111.917 334.181 A 137.937 137.937 0 0 0 80.675 349.37 A 123.085 123.085 0 0 0 69.339 357.813 A 115.865 115.865 0 0 0 40.433 393.946 A 98.18 98.18 0 0 0 29.733 436.736 A 114.619 114.619 0 0 0 29.691 439.845 A 128.246 128.246 0 0 0 32.583 467.553 A 108.15 108.15 0 0 0 37.894 484.766 Q 46.097 505.079 59.769 521.095 Q 73.441 537.11 91.409 548.829 A 204.609 204.609 0 0 0 128.909 568.165 Q 148.441 575.782 168.167 579.493 Q 187.894 583.204 205.472 583.204 A 369.746 369.746 0 0 0 263.48 578.712 A 216.868 216.868 0 0 0 318.909 561.914 A 239.989 239.989 0 0 0 319.339 561.72 A 228.507 228.507 0 0 0 355.064 541.276 A 279.233 279.233 0 0 0 373.441 527.345 A 267.051 267.051 0 0 0 398.257 503.919 Q 410.301 491.089 422.262 475.492 A 453.735 453.735 0 0 0 426.175 470.313 A 504.363 504.363 0 0 0 450.582 434.179 Q 462.619 414.69 474.529 392.079 A 852.626 852.626
           0 0 0 477.933 385.548 A 928.734 928.734 0 0 0 500.358 338.7 Q 511.188 314.455 522.053 287.011 A 1600.178 1600.178 0 0 0 529.3 268.36 A 716.844 716.844 0 0 0 538.913 241.749 A 859.888 859.888 0 0 0 544.534 224.61 Q 551.956 201.173 559.769 177.345 Q 555.203 153.712 552.392 134.879 A 587.059 587.059 0 0 1 550.198 118.751 Q 548.23 102.479 547.584 89.91 A 223.012 223.012 0 0 1 547.269 78.516 Q 547.269 61.819 549.849 51.758 A 50.752 50.752 0 0 1 550.003 51.173 Q 551.848 44.322 554.403 39.693 A 26.551 26.551 0 0 1 557.034 35.743 A 24.616 24.616 0 0 1 560.331 32.367 Q 563.216 29.962 566.409 29.102 A 40.104 40.104 0 0 1 572.604 27.928 A 33.841 33.841 0 0 1 576.175 27.735 A 23.386 23.386 0 0 1 579.984 28.067 Q 582.332 28.455 584.964 29.298 A 15.718 15.718 0 0 1 589.914 31.991 Q 592.018 33.651 593.948 36.134 Q 596.736 39.718 598.892 45.558 A 69.667 69.667 0 0 1 600.784 51.563 Q 603.519 61.72 603.519 78.907 Q 603.519 95.02 600.922 115.461 A 441.654 441.654 0 0 1 600.003 122.266 A 526.518 526.518 0 0 1 595.609 148.145 A 715.648 715.648 0 0 1 589.456 176.563 A 3620.27 3620.27 0 0 0 594.925 201.759 A 4953.16 4953.16 0 0 0 601.175 229.688 A 20814.756 20814.756 0 0 1 611.356 274.842 A 23104.868 23104.868 0 0 1 614.847 290.431 Q 621.878 321.876 629.3 354.688 Q 636.722 387.501 643.753 418.751 A 64950.56 64950.56 0 0 0 653.97 464.088 A 56566.708 56566.708 0 0 0 657.23 478.516 A 5832.623 5832.623 0 0 0 663.431 505.665 A 4256.803 4256.803 0 0 0 669.144 530.079 A 8260.28 8260.28 0 0 1 677.713 508.592 Q 681.558 498.986 685.861 488.294 A 16417.061 16417.061 0 0 1 694.925 465.821 Q 710.159 428.126 728.909 385.743 A 3469.978 3469.978 0 0 1 768.558 299.415 Q 789.456 255.47 811.331 216.407 A 2134.99 2134.99 0 0 1 833.762 177.03 Q 845.072 157.68 855.608 140.744 A 1151.145 1151.145 0 0 1 867.972 121.29 Q 893.753 81.641 912.503 55.86 A 1158.347 1158.347 0 0 1 921.378 43.812 Q 930.013 32.256 936.52 24.282 A 257.753 257.753 0 0 1
            941.995 17.774 A 2453.018 2453.018 0 0 0 944.525 14.872 Q 952.301 5.937 953.399 4.465 A 4.034 4.034 0 0 0 953.519 4.298 Q 957.816 0.001 964.066 0.001 A 15.928 15.928 0 0 1 969.173 0.786 A 13.26 13.26 0 0 1 974.808 4.493 A 14.898 14.898 0 0 1 978.909 14.845 A 13.491 13.491 0 0 1 978.075 19.459 A 15.865 15.865 0 0 1 977.738 20.313 Q 977.738 20.704 973.245 31.837 Q 969.806 40.36 964.993 53.692 A 1379.981 1379.981 0 0 0 961.917 62.306 A 1087.323 1087.323 0 0 0 956.598 77.741 Q 954.302 84.562 951.872 92.031 A 1893.74 1893.74 0 0 0 946.878 107.618 Q 938.675 133.595 930.863 163.477 Q 923.05 193.36 916.995 225.977 A 660.166 660.166 0 0 0 908.206 291.016 A 985.004 985.004 0 0 0 906.668 314.051 A 1119.74 1119.74 0 0 0 906.253 322.071 A 677.507 677.507 0 0 0 905.472 354.688 Q 905.472 380.47 907.816 406.641 A 386.182 386.182 0 0 0 914.957 453.997 A 356.08 356.08 0 0 0 915.628 457.032 A 251.367 251.367 0 0 0 928.189 497.172 A 229.667 229.667 0 0 0 930.472 502.54 A 157.816 157.816 0 0 0 945.201 529.044 A 136.851 136.851 0 0 0 953.519 539.845 A 106.764 106.764 0 0 0 986.136 565.626 A 93.24 93.24 0 0 0 1012.895 574.451 A 121.144 121.144 0 0 0 1030.081 576.173 A 13.741 13.741 0 0 1 1035.54 577.605 A 13.165 13.165 0 0 1 1040.042 581.446 A 18.951 18.951 0 0 1 1042.736 586.233 A 15.676 15.676 0 0 1 1043.753 591.798 A 13.054 13.054 0 0 1 1040.594 600.314 A 17.716 17.716 0 0 1 1039.456 601.563 A 14.692 14.692 0 0 1 1034.61 604.852 A 13.922 13.922 0 0 1 1029.3 605.86 Q 1023.05 605.86 1016.8 604.688 A 150.675 150.675 0 0 1 987.642 597.771 A 122.663 122.663 0 0 1 967.191 588.477 Q 945.706 576.173 930.081 558.009 A 166.534 166.534 0 0 1 905.419 519.488 A 186.393 186.393 0 0 1 904.105 516.602 A 275.695 275.695 0 0 1 889.13 473.386 A 308.482 308.482 0 0 1 887.503 466.798 A 391.237 391.237 0 0 1 878.794 412.421 A 426.965 426.965 0 0 1 878.714 411.524 A 658.197 658.197 0 0 1 876.175 353.516 Q 876.175 318.751 879.691 283.985 A 913.611 913.611 0 0 1 889.066 216.212 Q 894.925 183.204 902.738 152.345 Q 910.55 121.485 918.753 94.923 Z"
             vector-effect="non-scaling-stroke"/></g>
            </svg>